<?xml version="1.0" encoding="UTF-8"?>
<svg width="85" height="90" xmlns="http://www.w3.org/2000/svg">
 <metadata>Chess Set SymbolsgamechesssymbolsboardrecreationfontsIgor KrizanovskijIgor KrizanovskijIgor Krizanovskijimage/svg+xmlen</metadata>
 <g>
  <title>White Camel</title>
  <g id="layer1">
   <path fill="#000000" stroke-width="1.0000000pt" id="path1700" d="m42.198425,51.51123c-6.02478,0 -10.715393,-0.258209 -14.071899,-0.774597c0.602356,1.204926 0.903564,2.237701 0.903687,3.098358c-0.000122,1.291046 -0.258301,2.366852 -0.774597,3.227539c2.495853,-0.774628 7.143433,-1.161926 13.94281,-1.161926c6.799133,0 11.446777,0.387299 13.942749,1.161926c-0.516479,-0.860687 -0.774658,-1.936493 -0.774536,-3.227539c-0.000122,-1.032776 0.258057,-2.065552 0.774536,-3.098358c-4.045166,0.516388 -8.69281,0.774597 -13.942749,0.774597m0,-46.734161c-1.807495,0 -3.055481,0.817612 -3.743896,2.452881c-0.172241,0.430328 -0.258301,0.860672 -0.258179,1.291c-0.000122,1.893463 0.946594,3.141434 2.840149,3.743896c0.344177,0.086075 0.731506,0.129107 1.161926,0.129107c1.979431,0 3.270447,-0.903717 3.872986,-2.71109c0.085938,-0.344284 0.128967,-0.731586 0.129089,-1.161911c-0.000122,-1.721329 -0.860779,-2.88324 -2.58197,-3.485687c-0.516541,-0.17215 -0.989868,-0.258194 -1.420105,-0.258194m0,54.867434c-3.27063,0 -7.487915,0.301239 -12.651793,0.903717c-1.463137,0.17215 -2.323792,0.989746 -2.581968,2.452881c0,1.032803 2.366697,1.67831 7.10046,1.936489c-0.43042,-0.08606 -0.258301,-0.129089 0.516418,-0.129089c0.774475,0 3.313416,0 7.616882,0c10.069702,0 15.104553,-0.602478 15.104675,-1.8074c-0.000122,-1.979523 -2.496033,-3.055359 -7.487793,-3.227478l-3.743896,0c-1.118958,0 -2.065674,-0.04303 -2.84021,-0.12912l-1.032776,0m-0.129089,-11.877167c9.639343,0 15.534912,-0.90369 17.686707,-2.711124c1.463013,-1.118866 2.538818,-4.08815 3.227478,-8.907883c-0.430481,-4.303328 -3.2276,-8.434538 -8.391541,-12.393599c-4.819824,-3.786911 -9.037048,-5.895554 -12.651733,-6.325895c-3.35675,0.430344 -7.444885,2.538984 -12.264526,6.325895c-5.077942,3.959063 -7.832026,8.090271 -8.26239,12.393599c0.602478,4.475449 1.549194,7.315659 2.840216,8.520584c0.344233,0.344269 0.731564,0.645508 1.16186,0.903687c2.151733,1.463165 7.702881,2.194736 16.653931,2.194736m-2.194702,-6.325912l0,-5.680389l-4.389404,0l0,-5.034908l4.389404,0l0,-5.551287l4.647583,0l0,5.551287l4.389404,0l0,5.034908l-4.389404,0l0,5.680389l-4.647583,0m2.065613,26.336376c-0.774719,0 -3.055481,1.506165 -6.842346,4.518494c-2.668152,1.807404 -6.971375,2.88324 -12.909973,3.227509c-4.303345,0 -7.745972,0.215149 -10.328,0.645477c-2.754089,0.602478 -4.131166,1.764374 -4.131166,3.485718c0.258179,1.721313 1.161865,2.582001 2.711061,2.582001l6.842345,-1.032799c4.475401,0 9.166075,-0.602455 14.071842,-1.807411c5.594233,-1.463135 9.20904,-3.786926 10.844416,-6.971405c2.323669,4.561554 8.348328,7.315674 18.073975,8.26239c-0.000061,0 1.118774,0.17215 3.356628,0.516418c2.23761,0 3.356506,0 3.356567,0l6.971375,1.032806c1.549133,0 2.45282,-0.860687 2.711121,-2.582001c-0.000122,-1.721344 -1.377197,-2.88324 -4.131165,-3.485718l-13.813721,-1.032776c-4.389526,-0.344269 -8.606747,-2.065613 -12.651794,-5.164001c-1.807495,-1.463135 -3.18457,-2.194702 -4.131165,-2.194702m0.258179,11.231689c-3.356689,3.356598 -8.434631,5.42218 -15.233765,6.196808c-2.75415,0.258179 -7.573854,0.860657 -14.459229,1.807373c-1.807373,0.344299 -2.840209,1.161926 -3.098387,2.452911c-1.635255,-0.430328 -4.045105,-3.098389 -7.229614,-8.004181c-0.774597,-1.204926 -1.333984,-2.022583 -1.678284,-2.452911c2.84021,-5.42218 6.368958,-8.13327 10.58618,-8.13327l7.61694,0.387299c3.528687,0 7.659914,-0.81765 12.393555,-2.452904c-6.110718,-0.774597 -9.166077,-2.625038 -9.166077,-5.551296l2.58197,-9.811588c0,-0.08606 0,-0.17215 0,-0.258209c-5.16394,-5.680386 -7.745974,-11.016521 -7.745974,-16.008373c0,-5.680408 2.79718,-10.844391 8.391479,-15.491991c4.905701,-4.13121 8.520506,-6.325896 10.844416,-6.584105c-1.893616,-2.323792 -2.840332,-4.733644 -2.84021,-7.229599c-0.000122,-3.959061 1.979431,-6.454987 5.938602,-7.487793c0.946594,-0.258087 1.979431,-0.387192 3.098389,-0.387299c4.217163,0.000107 6.971249,1.592239 8.26239,4.776718l0.645508,2.711091l0,0.387283c-0.000122,2.668059 -0.903809,5.077941 -2.711124,7.229599c2.32373,0.258207 5.981567,2.495939 10.973515,6.713196c5.508118,4.561522 8.262276,9.682495 8.262398,15.3629c-0.000122,4.819714 -2.582092,10.155834 -7.745979,16.008373c-0.000122,1.204956 0.430237,2.926273 1.290955,5.164001c0.860596,2.75415 1.290894,4.389404 1.291016,4.905792c-0.000122,2.92627 -3.055481,4.776703 -9.166077,5.5513c4.647461,1.635254 8.778687,2.452911 12.393562,2.452911l7.616943,-0.387299c4.217163,0 7.74585,2.71109 10.586182,8.13327l-4.389404,6.713196c-1.463257,1.893463 -2.969421,3.141449 -4.518494,3.743889c-0.34436,-1.721306 -2.840332,-2.797173 -7.487793,-3.227478c0.602356,0 -0.68866,-0.12912 -3.87299,-0.387299c-10.758484,-1.032806 -17.901981,-3.313568 -21.430603,-6.842316"/>
  </g>
 </g>
</svg>