<?xml version="1.0" encoding="UTF-8"?>
<svg width="80" height="85" xmlns="http://www.w3.org/2000/svg">
 <metadata>Chess Set SymbolsgamechesssymbolsboardrecreationfontsIgor KrizanovskijIgor KrizanovskijIgor Krizanovskijimage/svg+xmlen</metadata>
 <g>
  <title>White King</title>
  <g id="layer1">
   <path d="m40.117699,84.946503c-17.127251,0 -25.819984,-2.883209 -26.078178,-8.649689c-0.430336,-7.918121 -1.764377,-13.89975 -4.002098,-17.944885c-0.946733,-1.635254 -2.280762,-3.614807 -4.002098,-5.938599c-2.926262,-3.872986 -4.561531,-7.143524 -4.905792,-9.811584c-0.086075,-0.688538 -0.129112,-1.420105 -0.129112,-2.194717c0,-5.42218 2.280762,-9.682465 6.842293,-12.780869c1.118874,-0.688538 2.280762,-1.247971 3.485703,-1.678299c4.561531,-1.635269 9.080018,-1.377075 13.555488,0.774597c1.635263,0.774582 3.270531,1.807388 4.905792,3.098389l0.129112,0.129105c0,-1.807404 0.086052,-3.743895 0.258194,-5.809479c0,-0.602493 0.301224,-1.420105 0.903692,-2.452911c1.377073,-2.237732 3.012331,-4.002106 4.905794,-5.293091c0.344261,-0.17215 0.68853,-0.387314 1.032799,-0.645505l0,-3.098404l-5.293091,-3.098392l0,-4.647583l4.776703,0l1.678299,-4.905825l3.872986,0l1.678307,4.905825l4.776695,0l0,4.647583l-5.293091,3.098392l0,3.098404c4.475464,2.840192 6.756226,5.680387 6.842285,8.520597c0.172127,1.721329 0.258194,3.614792 0.258194,5.680389l0.129112,-0.129105c5.422188,-4.561539 11.102592,-6.024658 17.041176,-4.389389c1.54921,0.430313 3.012344,1.075821 4.389404,1.936508c4.819717,2.926249 7.272629,7.272614 7.358704,13.039063c0,3.442673 -1.721329,7.530838 -5.164001,12.264511c-2.840195,3.959045 -4.604568,6.842285 -5.293106,8.649689c-1.463104,3.872986 -2.323792,8.864838 -2.581985,14.975586c-0.172119,5.766479 -8.864861,8.649689 -26.078178,8.649689m0,-43.506668l3.743896,-5.938583c0.60247,-1.291 1.075821,-2.495941 1.420082,-3.614807c0.17215,-0.602463 0.258217,-1.850412 0.258217,-3.743895c0,-5.077911 -1.764366,-7.616898 -5.293114,-7.616898c-3.700851,0 -5.551292,2.538984 -5.551292,7.616898c0,1.893478 0.086067,3.141434 0.258202,3.743895c0.68853,2.323807 2.151665,5.077942 4.389397,8.26239c0.516415,0.602478 0.774612,1.032806 0.774612,1.291m34.469673,-0.258194c0,-3.873001 -1.290985,-6.842285 -3.873016,-8.907883c-2.151642,-1.807419 -4.690598,-2.711105 -7.616882,-2.711105c-3.700848,0 -7.70295,1.893448 -12.006283,5.680389c-5.077927,4.389404 -7.961159,10.328003 -8.6497,17.815796c0,0.602448 1.592224,1.290985 4.776691,2.065582c3.700867,0.688568 9.983727,1.032806 18.848591,1.032806l5.809494,-7.746002c1.807404,-2.75412 2.711105,-5.163971 2.711105,-7.229584m-34.469669,17.428497c-2.15168,0.946747 -8.692743,1.764343 -19.623194,2.452881c-1.635269,0.08609 -2.969299,0.17215 -4.002098,0.258209c0.860672,3.270538 1.420105,6.885315 1.678299,10.844391c5.938591,-1.893463 13.25425,-2.840179 21.946993,-2.840179c8.864845,0 16.180519,0.946716 21.946983,2.840179c0.258209,-4.303345 0.817638,-7.918121 1.678299,-10.844391l-19.106804,-1.549194c-1.635262,-0.258209 -3.141418,-0.645508 -4.518478,-1.161896m-34.469679,-17.428497c0,2.66806 2.108643,6.713196 6.325897,12.135376c1.032799,1.291016 1.764374,2.237762 2.194702,2.84021l2.323792,0c8.864857,0 15.319862,-0.602448 19.364988,-1.807404c1.291,-0.344269 1.936508,-0.774567 1.936508,-1.290985c-0.688545,-7.487793 -3.571777,-13.426392 -8.649708,-17.815796c-4.217255,-3.786943 -8.219355,-5.680389 -12.006289,-5.680389c-1.204936,0 -2.495929,0.258194 -3.872989,0.774597c-3.44268,0.860672 -5.766472,3.141418 -6.971397,6.8423l-0.645508,3.485687l0,0.516403m34.469689,39.117279c8.09024,0 13.684601,-0.516418 16.78299,-1.549194c0.774597,-0.258209 1.161903,-0.559448 1.161903,-0.903717c0,-2.237732 -5.938583,-3.356598 -17.815811,-3.356598c-4.561516,0 -8.993942,0.30127 -13.297264,0.903717c-3.184483,0.516388 -4.776718,1.334015 -4.776718,2.452881c0,1.290985 5.077929,2.108643 15.233795,2.452911c1.032799,0 1.936485,0 2.711105,0" id="path1721" stroke-width="1.0000000pt" fill="#000000"/>
  </g>
 </g>
</svg>