<?xml version="1.0" encoding="UTF-8"?>
<svg width="90" height="85" xmlns="http://www.w3.org/2000/svg">
 <metadata>Chess Set SymbolsgamechesssymbolsboardrecreationfontsIgor KrizanovskijIgor KrizanovskijIgor Krizanovskijimage/svg+xmlen</metadata>
 <g>
  <title>White Queen</title>
  <g id="layer1">
   <path fill="#000000" stroke-width="1.0000000pt" id="path1715" d="m41.829193,55.352173l5.680389,0c1.290894,0 2.840088,0.042999 4.647583,0.129089l12.780914,0.774597l0.129089,0c1.549103,0 2.323669,-0.215179 2.323792,-0.645508l0,-0.516388c-0.000122,-2.582001 -5.723511,-4.260315 -17.170288,-5.034882c-2.065704,-0.17215 -3.873108,-0.258209 -5.42218,-0.258209c-8.434631,0 -14.932556,0.860657 -19.49411,2.582001c-2.065582,0.774567 -3.098389,1.678284 -3.098389,2.71109l0,0.516388c0,0.430328 0.774611,0.645508 2.323792,0.645508l17.299408,-0.903687m23.883484,5.809479c-6.799377,-0.860657 -13.770782,-1.291016 -20.914185,-1.291016c-7.487915,0 -14.459229,0.430359 -20.914185,1.291016c1.032776,0.860657 1.549194,2.538971 1.549194,5.034912c0,1.635254 -0.258209,2.625031 -0.774597,2.969299c5.163971,-0.946747 11.877106,-1.420105 20.139587,-1.420105c8.262268,0 14.975464,0.473358 20.139587,1.420105c-0.51651,-0.344269 -0.774719,-1.334045 -0.774628,-2.969299c-0.000092,-2.495941 0.516327,-4.174255 1.549225,-5.034912m-20.914185,11.1026c-4.389526,0 -9.295319,0.215149 -14.717407,0.645508c-4.217255,0.344238 -6.325897,1.334045 -6.325897,2.969299c0,2.151642 7.014435,3.227478 21.043304,3.227478c14.028748,0 21.043152,-1.075836 21.043274,-3.227478c-0.000122,-0.688538 -0.55954,-1.334045 -1.678314,-1.936523c-3.27063,-1.118866 -9.725616,-1.678284 -19.36496,-1.678284m0,-67.519257c-2.151794,0 -3.227631,1.032791 -3.227509,3.098389c-0.000122,2.237731 1.075714,3.356612 3.227509,3.356612c2.06546,0 3.098267,-1.118881 3.098389,-3.356612c-0.000122,-2.065598 -1.032928,-3.098389 -3.098389,-3.098389m0,-3.743881c3.098267,0 5.249939,1.420074 6.454987,4.260284l0.645477,2.581985l0,0.387315c-0.000092,0.516388 -0.34436,1.592238 -1.032776,3.227492c-1.205048,3.528732 -1.807495,6.58409 -1.807404,9.166076c-0.000092,4.217285 0.946625,10.457108 2.840179,18.7195c4.647491,-9.811571 6.971313,-17.21332 6.971405,-22.205187l-0.774597,-5.551287c-0.000122,-3.012328 1.333923,-5.164001 4.002106,-6.455002c0.946594,-0.516388 1.979401,-0.774582 3.098389,-0.774582c3.098297,0 5.292999,1.377045 6.584076,4.131181c0.516327,1.03279 0.774536,2.065598 0.774628,3.098402c-0.000092,2.237732 -0.774719,4.00209 -2.323792,5.293094c-2.323914,2.323805 -3.52887,6.110716 -3.614807,11.360777c-0.000092,2.237762 0.215057,5.852543 0.645508,10.84441c5.594208,-5.766464 8.391357,-10.457111 8.391479,-14.071888l-0.645477,-5.034912c-0.000122,-2.840195 1.290863,-4.94882 3.872986,-6.32588c1.032684,-0.602478 2.108521,-0.903717 3.227509,-0.903717c2.926147,0 5.120819,1.334044 6.584076,4.002106l0.774597,2.452909l0,0.774582c-0.000092,3.528749 -1.979645,6.196812 -5.938599,8.004196c-0.172241,3.700871 -1.592346,10.973495 -4.260284,21.817905c-0.172241,0.516388 -0.301361,0.989746 -0.387299,1.420074c-0.000122,1.204956 -1.377167,3.270538 -4.131226,6.196804c-3.700958,3.700871 -5.551361,6.58408 -5.55127,8.649693c-0.000092,0.946716 1.032684,3.485718 3.098389,7.616882c0.344177,0.774628 0.516296,1.936493 0.516388,3.485718l0,0.903687c-0.086151,0.258209 -0.129211,0.559448 -0.129059,0.903687l0,0.12912l0.129059,0.129089c-0.000092,3.098389 -8.305511,4.819733 -24.91626,5.164001c-1.118958,0 -2.194794,0 -3.227509,0l-5.42218,-0.129089l-0.12912,0c-8.090368,-0.258209 -14.244024,-0.946747 -18.461264,-2.065613c-2.668076,-0.774597 -4.002106,-1.764343 -4.002106,-2.969299c0.086075,-0.08606 0.086075,-0.602448 0,-1.549194c-0.086075,-0.172119 -0.086075,-0.344269 0,-0.516388c0,-1.979523 0.645493,-4.260284 1.936493,-6.842316c1.032806,-2.065582 1.549194,-3.485657 1.549194,-4.260284c0,-1.377075 -0.731552,-3.012329 -2.194687,-4.905792l-6.325912,-7.229584c-0.688521,-0.946754 -1.032804,-1.850471 -1.032804,-2.711124c-2.668059,-10.930447 -4.174212,-18.030926 -4.518477,-21.301483c-0.08606,-0.688538 -0.129105,-1.33403 -0.129105,-1.936493c-3.959061,-1.807388 -5.938583,-4.475449 -5.938583,-8.004196c0,-2.840195 1.290985,-4.948821 3.872971,-6.325881c1.118866,-0.602478 2.237747,-0.903717 3.356598,-0.903717c3.012344,0 5.164017,1.377075 6.455032,4.131209c0.516388,0.946732 0.77457,1.979538 0.77457,3.098389l-0.645494,5.034912c0,3.786926 2.754133,8.477554 8.262388,14.071884c0.430347,-3.786945 0.645494,-7.401733 0.645494,-10.844406c0,-4.733643 -0.55942,-7.875092 -1.678268,-9.424286c-0.430344,-0.602463 -1.07585,-1.290985 -1.936508,-2.065598c-1.54921,-1.032804 -2.323807,-2.754121 -2.323807,-5.163987c0,-3.012329 1.420105,-5.207031 4.260315,-6.584091c0.946733,-0.430344 1.979538,-0.645493 3.098373,-0.645493c3.012329,0 5.164,1.377045 6.455017,4.131179c0.516266,0.946733 0.774475,1.979537 0.774567,3.098403l-0.774567,5.422185l0,0.129105c0,4.905792 2.323668,12.307539 6.971407,22.205183c1.807278,-7.832047 2.710968,-14.071901 2.71106,-18.719496c-0.000092,-3.442642 -0.645599,-6.713181 -1.936493,-9.811587c-0.516479,-1.204926 -0.774689,-2.065598 -0.774567,-2.581985c-0.000122,-3.012343 1.376923,-5.163986 4.131165,-6.455c0.946625,-0.516403 1.979431,-0.774582 3.098419,-0.774582m37.309875,15.879273c-1.377197,0 -2.366943,0.688538 -2.969299,2.065598c-0.086182,0.344269 -0.129242,0.688522 -0.12912,1.032791c-0.000122,1.721329 0.774475,2.79718 2.323792,3.227509c0.258087,0.08606 0.516327,0.129089 0.774628,0.129089c2.15152,0 3.227356,-1.118851 3.227478,-3.356598c-0.000122,-2.065582 -1.075958,-3.098389 -3.227478,-3.098389m-16.912109,-8.262392c-1.463226,0 -2.453003,0.731566 -2.969299,2.194688l-0.129089,1.032804c-0.000122,1.549194 0.731445,2.581985 2.194702,3.098404c0.258087,0.086061 0.559326,0.129089 0.903687,0.129089c2.23764,0 3.356506,-1.075821 3.356598,-3.227493c-0.000092,-2.151657 -1.118958,-3.227491 -3.356598,-3.227491m-41.053766,0c-2.151642,0 -3.227493,1.075834 -3.227493,3.227491c0,2.151672 1.075851,3.227493 3.227493,3.227493c2.065613,0 3.098419,-1.075821 3.098419,-3.227493c0,-2.151657 -1.032806,-3.227491 -3.098419,-3.227491m-16.912093,8.26239c-2.151643,0 -3.227478,1.032806 -3.227478,3.098389c0,2.237747 1.075835,3.356598 3.227478,3.356598c2.065613,0 3.098418,-1.118851 3.098418,-3.356598c0,-1.46312 -0.731566,-2.452881 -2.194686,-2.969297c-0.258224,-0.086042 -0.559448,-0.129087 -0.903731,-0.129087m37.5681,8.262403c-1.205048,7.573854 -2.754242,13.039064 -4.647614,16.395662l-1.936493,3.098419l0,0.12912c-0.258301,-0.258244 -1.377167,-1.549225 -3.356598,-3.873035c-2.496033,-2.926254 -5.120974,-8.477551 -7.875093,-16.653868c0.172119,1.204926 0.258209,2.452896 0.258209,3.743881c0,4.045137 -0.731567,10.284971 -2.194733,18.719511c-4.647572,-2.754147 -9.166065,-7.143555 -13.555482,-13.168228c1.46315,7.401752 2.582031,12.264511 3.356598,14.588303c0.516418,1.721344 1.161912,2.71109 1.936507,2.969299c7.057447,-4.045105 16.395584,-6.067688 28.014694,-6.067688c11.704926,0 21.043148,2.022583 28.014645,6.067688c1.549103,-0.516388 3.270447,-6.368927 5.164001,-17.557602c-4.475555,6.196808 -8.95105,10.586227 -13.426361,13.168228c-1.463257,-7.487823 -2.19482,-13.383377 -2.194702,-17.686705c-0.000118,-1.118856 0.085941,-2.71109 0.258183,-4.776691c-1.721439,5.163986 -3.700958,9.768541 -5.938568,13.813677c-1.205048,1.807388 -2.539093,3.528748 -4.002136,5.164001c-0.688629,0.688538 -1.118958,1.204926 -1.290985,1.549225l-2.84021,-5.034927c-0.086147,-0.344254 -0.215237,-0.688522 -0.387268,-1.032791c-0.688625,-1.893463 -1.807526,-6.411961 -3.356598,-13.555479"/>
  </g>
 </g>
</svg>