<?xml version="1.0" encoding="UTF-8"?>
<svg width="65" height="80" xmlns="http://www.w3.org/2000/svg">
 <metadata>Chess Set SymbolsgamechesssymbolsboardrecreationfontsIgor KrizanovskijIgor KrizanovskijIgor Krizanovskijimage/svg+xmlen</metadata>
 <g>
  <title>Black Bishop</title>
  <g id="layer1">
   <path fill="#000000" stroke-width="1.0000000pt" id="path1734" d="m2.452789,78.265915l-2.452911,-2.452896l0,-9.166092l13.039093,-12.909988l0,-25.690865l-10.069763,-9.940697l0,-11.489898l3.614777,-3.6148l9.166107,0l2.323792,2.194717l0,3.227486l4.905792,0l0,-3.227486l2.194674,-2.194717l14.330107,0l2.194702,2.194717l0,3.227486l4.905792,0l0,-3.227486l2.194702,-2.194717l9.295197,0l3.614807,3.6148l0,11.489898l-10.069794,9.940697l0,25.690865l13.039063,12.909988l0,9.166092l-2.58197,2.452896l-59.644163,0m15.233795,-27.49826l0,4.389404l29.305666,0l0,-4.389404l-29.305666,0m0,-23.237991l0,4.389397l29.305666,0l0,-4.389397l-29.305666,0"/>
  </g>
 </g>
</svg>