<?xml version="1.0" encoding="UTF-8"?>
<svg width="85" height="90" xmlns="http://www.w3.org/2000/svg">
 <metadata>Chess Set SymbolsgamechesssymbolsboardrecreationfontsIgor KrizanovskijIgor KrizanovskijIgor Krizanovskijimage/svg+xmlen</metadata>
 <g>
  <title>Black Camel</title>
  <g id="layer1">
   <path d="m36.503418,56.158699c-4.389526,0 -6.584229,0.68853 -6.584106,2.06559c-0.000122,1.204926 1.936401,1.936508 5.809509,2.194702l7.100464,0c8.606567,0 12.909851,-0.731583 12.909973,-2.194702c-0.000122,-1.37706 -2.194763,-2.06559 -6.584045,-2.06559l-12.651794,0m0,-8.004211c-3.787048,0 -5.895691,0.430351 -6.325928,1.291c-0.172241,0.17215 -0.258301,0.430336 -0.258179,0.774605c-0.000122,0.946732 0.903563,1.506165 2.71106,1.678307c2.237671,0.258186 5.637268,0.387299 10.198914,0.387299c4.561462,0 8.004089,-0.129112 10.328003,-0.387299c1.721191,-0.172142 2.581848,-0.731575 2.58197,-1.678307c-0.000122,-1.377068 -2.194763,-2.065605 -6.584045,-2.065605l-12.651794,0m24.012573,5.551292l2.58197,9.940689c-0.000122,3.012344 -3.055481,4.776703 -9.166077,5.293091c4.475342,1.721344 8.649597,2.582031 12.522705,2.582031c0.516296,0 3.055237,-0.12912 7.616882,-0.387314c3.786804,0 6.885193,1.979538 9.295166,5.938614c0.344177,0.688522 0.774536,1.463104 1.291016,2.323792l-4.647583,7.100479c-1.377197,1.721329 -2.840332,2.84021 -4.389404,3.356598c-0.34436,-1.807388 -3.098511,-2.926254 -8.26239,-3.356598l-3.098389,-0.258194c-10.586304,-0.860657 -17.729858,-3.141418 -21.430603,-6.842285c-3.356689,3.528717 -8.477661,5.551285 -15.362854,6.067673c-1.549255,0.17215 -3.571777,0.430344 -6.067749,0.774612c-6.282837,0.516388 -9.940674,1.420105 -10.97345,2.711105c-0.172119,0.258179 -0.30127,0.559418 -0.387329,0.903687c-2.237671,-0.946732 -4.346375,-3.098404 -6.325867,-6.454987c-0.774597,-1.37706 -1.678284,-2.71109 -2.711121,-4.00209c2.323792,-4.303329 4.819702,-6.88533 7.487793,-7.746002c0.946776,-0.344269 1.979552,-0.516403 3.098389,-0.516403c0,0 2.539001,0.129089 7.616943,0.387314c3.959045,0 8.133238,-0.860687 12.522644,-2.582031c-6.110718,-0.516388 -9.166077,-2.280746 -9.166077,-5.293091c0,-0.258179 0.688538,-2.452866 2.065613,-6.584084c0.430298,-1.377068 0.645508,-2.323807 0.645508,-2.840202c-5.250061,-6.368919 -7.875122,-12.006287 -7.875122,-16.912079c0,-5.680397 2.79718,-10.844383 8.391479,-15.491974c4.991756,-4.217293 8.606567,-6.455009 10.844421,-6.713202c-1.893555,-2.323799 -2.840332,-4.733681 -2.84021,-7.229599c-0.000122,-4.045128 2.022461,-6.541046 6.067688,-7.487801c0.946655,-0.258095 1.936401,-0.387177 2.969299,-0.387291c4.303223,0.000114 7.100403,1.592239 8.391476,4.776693l0.645508,2.711098l0,0.387299c-0.000118,2.409859 -0.946835,4.819717 -2.84021,7.229599c1.635197,0.430336 4.088078,1.764374 7.358707,4.00211c7.91803,5.50824 11.877136,11.575943 11.877197,18.203068c-0.000061,4.991859 -2.582092,10.457085 -7.745975,16.395676m-15.362915,-12.006271l0,-5.938591l4.518497,0l0,-4.905823l-4.518497,0l0,-5.551285l-4.647583,0l0,5.551285l-4.518494,0l0,4.905823l4.518494,0l0,5.938591l4.647583,0m-2.323792,-36.406166c-1.721439,0 -2.797241,0.774574 -3.227478,2.323799l-0.129089,0.774574c-0.000122,1.635277 0.860535,2.668076 2.58197,3.098412c0.258118,0.086077 0.516293,0.129089 0.774597,0.129089c2.151546,0 3.227417,-1.075821 3.227535,-3.227501c-0.000118,-2.065598 -1.075989,-3.098372 -3.227535,-3.098372" id="path1731" stroke-width="1.0000000pt" fill="#000000"/>
  </g>
 </g>
</svg>