<?xml version="1.0" encoding="UTF-8"?>
<svg width="80" height="80" xmlns="http://www.w3.org/2000/svg">
 <metadata>Chess Set SymbolsgamechesssymbolsboardrecreationfontsIgor KrizanovskijIgor KrizanovskijIgor Krizanovskijimage/svg+xmlen</metadata>
 <g>
  <title>Black Horse</title>
  <g id="layer1">
   <path fill="#000000" stroke-width="1.0000000pt" id="path1726" d="m18.814575,32.079803c2.151611,0 4.432373,-1.247986 6.842224,-3.743904c1.291016,-1.290993 1.936523,-2.409866 1.936523,-3.356598c0,-1.118881 -1.032776,-1.678314 -3.098392,-1.678314c-2.409851,0 -4.432434,1.075844 -6.067688,3.227501c-0.860718,1.032814 -1.291016,2.108643 -1.291016,3.227524c0,1.549187 0.559448,2.323792 1.678345,2.323792m-2.194761,-28.272876c0.17218,0 0.602476,-0.043037 1.291018,-0.129112c3.873047,0 8.004211,1.291023 12.393616,3.873009c0.516357,0.344276 0.774597,0.516396 0.774597,0.516396c2.495911,-4.045135 4.389404,-6.067696 5.680359,-6.067696c2.75415,1.549201 4.561584,3.2275 5.422241,5.034895c0.430298,0.86068 1.075806,2.668061 1.936462,5.422194c0.688538,-0.17215 1.377075,-0.258183 2.065613,-0.258183c7.229614,0 14.114929,4.432418 20.656006,13.297286c7.832031,10.241928 11.748047,24.184685 11.748047,41.828358c0,3.959061 -0.172119,7.5308 -0.516357,10.715286l-54.480164,0c0.172119,-5.766464 2.280762,-11.231689 6.325867,-16.395691c0.430359,-0.688538 1.032837,-1.46312 1.807434,-2.323792c3.184448,-4.04512 5.120914,-7.143524 5.809448,-9.295197c0.344299,-1.118851 0.602478,-2.280762 0.774658,-3.485695c-5.68042,2.237732 -9.940735,5.551308 -12.780947,9.940697c-1.290955,2.151657 -2.71106,4.389404 -4.260315,6.713196c-0.430298,0.688538 -1.075806,1.032806 -1.936459,1.032806c-2.151672,0 -3.22748,-1.33403 -3.22748,-4.00209c-0.860719,1.118851 -1.850465,1.678299 -2.969298,1.678299c0,0 -0.860721,-0.215179 -2.582031,-0.645508c-3.700866,-0.946747 -6.325867,-2.582001 -7.875061,-4.905807c-0.516418,-0.774597 -1.075867,-1.807388 -1.678345,-3.098373c0.602478,-3.70089 3.571778,-11.059578 8.907898,-22.076107c3.873048,-7.918129 6.282897,-13.598526 7.229613,-17.041179c0.086061,-0.774596 0.129089,-1.893449 0.129089,-3.356599c0,-1.204932 -0.215149,-3.528718 -0.64551,-6.971389m-7.745972,45.314052c-2.065613,0 -3.442688,0.903694 -4.131227,2.711102c-0.172119,0.430325 -0.258179,0.860657 -0.258179,1.290997c0,0.344273 0.129089,0.774597 0.387329,1.290985c2.237732,0 3.614806,-0.946712 4.131165,-2.840176c0.086061,-0.258194 0.129089,-0.559448 0.129089,-0.90369c0,-0.17215 -0.086061,-0.688538 -0.258181,-1.549217m63.388067,19.88139l0,-4.776688c0,-14.028873 -3.571777,-25.518749 -10.715271,-34.469667c-6.196838,-7.746016 -11.834167,-11.618999 -16.912113,-11.618999c0,0 -0.516418,-0.086075 -1.549194,-0.258202c-0.172119,0.08606 -0.30127,0.172127 -0.387329,0.258202c-1.118832,0 -1.678284,0.473358 -1.678284,1.420074c0,0.344284 0.25824,0.774611 0.774597,1.291021c4.647583,0.430323 9.725525,3.743877 15.233765,9.940697c6.971439,8.090237 10.457157,19.795315 10.457157,35.115135c0,0 0,0.258224 0,0.774612c0,3.786942 0.817566,5.680405 2.452881,5.680405c1.377075,0 2.151672,-1.118866 2.323792,-3.356598"/>
  </g>
 </g>
</svg>