<?xml version="1.0" encoding="UTF-8"?>
<svg width="80" height="85" xmlns="http://www.w3.org/2000/svg">
 <metadata>Chess Set SymbolsgamechesssymbolsboardrecreationfontsIgor KrizanovskijIgor KrizanovskijIgor Krizanovskijimage/svg+xmlen</metadata>
 <g>
  <title>Black King</title>
  <g id="layer1">
   <path d="m43.47216,52.412811c0,1.549217 -1.075836,2.323807 -3.227493,2.323807c-2.409866,0 -3.614799,-0.77459 -3.614799,-2.323807c0,-7.143524 -2.366837,-12.953026 -7.100494,-17.428474c-4.217262,-3.786942 -8.305428,-5.680397 -12.264488,-5.680397c-5.852531,0 -9.510361,2.323799 -10.973495,6.971397l-0.516396,3.485703l0,0.258194c0,3.442657 2.538963,8.21936 7.61689,14.330086c1.377068,1.54921 2.538963,2.754135 3.485703,3.614807c1.37706,1.118851 3.657829,1.678284 6.842293,1.678284c3.356598,0 8.778801,-0.645508 16.266579,-1.936493c7.573868,1.290985 13.039101,1.936493 16.395691,1.936493c3.270531,0 5.551292,-0.559433 6.842308,-1.678284c3.614792,-3.184479 6.627121,-7.057472 9.036972,-11.618996c1.377075,-2.582016 2.065613,-4.690636 2.065613,-6.325897c0,-5.422195 -2.452911,-8.821838 -7.358704,-10.198883c-1.291,-0.344276 -2.66806,-0.516411 -4.131195,-0.516411c-3.959045,0 -8.004189,1.936485 -12.135399,5.809509c-4.819717,4.303329 -7.229584,10.069778 -7.229584,17.299362m28.014671,-12.393578c0,3.442657 -2.366821,7.487785 -7.100494,12.135384l-3.356583,2.840218l-1.291008,0.774582c-1.635269,0.258202 -3.356598,0.387299 -5.163986,0.387299c-5.336136,0 -8.004204,-1.075836 -8.004204,-3.227501c0.172134,-6.627113 2.151672,-11.79113 5.938599,-15.491966c3.270523,-3.270554 6.627129,-4.905807 10.069778,-4.905807c4.389404,0 7.186584,1.592239 8.391495,4.776695l0.516403,2.711098m-12.264473,32.791374c0,-2.237747 -6.325905,-3.356598 -18.977692,-3.356598c-3.442657,0 -6.498032,0.129089 -9.166092,0.387299l-3.098404,0.258194c-4.647591,0.602478 -6.97139,1.46312 -6.97139,2.582001c0,1.291 1.161896,1.936493 3.485695,1.936493l15.621094,-1.291l15.491997,1.291c2.409843,0 3.614792,-0.602463 3.614792,-1.807388m7.229591,3.098389c-0.17215,5.852539 -8.950935,8.778793 -26.33638,8.778793c-17.213326,0 -25.949089,-2.926254 -26.207283,-8.778793c-0.086067,-5.508255 -0.903702,-10.414047 -2.452904,-14.717377c-0.946732,-2.323792 -2.754128,-5.293091 -5.422195,-8.90789c-3.35659,-4.561539 -5.034897,-8.606659 -5.034897,-12.135399c0,-5.508263 2.366837,-9.768555 7.100502,-12.780891c2.66806,-1.721329 5.63736,-2.581985 8.90789,-2.581985c4.475464,0 8.735764,1.635269 12.780891,4.905785c0,-3.959061 0.387299,-6.670158 1.161903,-8.133278c0.602463,-1.635277 2.581993,-3.614822 5.938591,-5.938606l0,-2.969307l-5.293091,-3.227493l0,-4.647606l4.776688,0l1.549202,-4.77668l4.389389,0l1.678299,4.77668l4.647591,0l0,4.647606l-5.163986,3.227493l0,2.969307c3.270531,2.409859 5.293091,4.475456 6.067688,6.196793l0.903702,3.743881c0.086075,1.032799 0.172134,2.409889 0.258194,4.13121c4.045135,-3.270515 8.219376,-4.905785 12.522713,-4.905785c5.766449,0 10.241928,2.194687 13.426376,6.584084c1.807419,2.582001 2.711105,5.508263 2.711105,8.778793c0,3.52874 -1.678299,7.61689 -5.034897,12.264481l-2.969299,4.13121c-3.184448,4.819733 -4.819717,11.274719 -4.905792,19.364975m-57.707664,-35.889763c0,-3.614784 1.807404,-5.938583 5.422195,-6.97139c1.032799,-0.344276 2.108635,-0.516403 3.227501,-0.516403c3.614799,0 7.057465,1.635254 10.327995,4.905807c3.700859,3.786919 5.63736,8.95092 5.809494,15.491966c0.086067,1.893471 -1.893471,2.969315 -5.938599,3.227501c-0.602463,0 -1.247963,0 -1.936501,0c-1.721329,0 -3.485695,-0.129097 -5.293091,-0.387299c-2.840202,-1.377068 -5.680397,-4.08815 -8.520592,-8.133286c-2.065605,-3.012337 -3.098404,-5.551292 -3.098404,-7.616898" id="text1061" stroke-width="1.0000000pt" fill="#000000"/>
  </g>
 </g>
</svg>