<?xml version="1.0" encoding="UTF-8"?>
<svg width="90" height="85" xmlns="http://www.w3.org/2000/svg">
 <metadata>Chess Set SymbolsgamechesssymbolsboardrecreationfontsIgor KrizanovskijIgor KrizanovskijIgor Krizanovskijimage/svg+xmlen</metadata>
 <g>
  <title>Black Queen</title>
  <g id="layer1">
   <path fill="#000000" stroke-width="1.0000000pt" id="path1742" d="m23.494293,70.84343c0,1.377075 0.989746,2.065598 2.969299,2.065598l8.907898,-0.645493c-0.000122,0 2.581879,-0.12912 7.745972,-0.387299l1.936523,0l15.104675,0.774597l3.098389,0.258194c1.979401,0 2.969208,-0.688522 2.969299,-2.065598c-0.000092,-2.495926 -5.766571,-3.872986 -17.299377,-4.131195l-4.002106,0c-9.725647,0 -16.223572,0.731583 -19.494081,2.194687c-1.290998,0.516418 -1.936493,1.161911 -1.936493,1.936508m-16.137496,-53.96376c-1.635284,0 -2.66806,0.817648 -3.098404,2.452909c-0.08606,0.258202 -0.129105,0.516388 -0.129105,0.774612c0,1.635262 0.817642,2.66806 2.452911,3.098381c0.258194,0.086067 0.516388,0.129105 0.774597,0.129105c2.065598,0 3.098389,-1.075836 3.098389,-3.227486c0,-2.15168 -1.032791,-3.227524 -3.098389,-3.227524m16.912064,-8.133286c-2.237717,0 -3.356567,1.075836 -3.356567,3.227501c0,2.15168 1.118851,3.2275 3.356567,3.2275c2.065613,0 3.098419,-1.075821 3.098419,-3.2275c0,-2.151665 -1.032806,-3.227501 -3.098419,-3.227501m41.182894,0c-1.463257,0 -2.453003,0.731575 -2.969299,2.194695l-0.12912,1.032805c-0.000095,2.15168 1.032715,3.227501 3.098419,3.227501c2.15155,0 3.227386,-1.075821 3.227478,-3.227501c-0.000092,-2.151665 -1.075928,-3.227501 -3.227478,-3.227501m16.78299,8.133286c-2.065735,0 -3.098511,1.075844 -3.098389,3.227524c-0.000122,2.151649 1.032654,3.227486 3.098389,3.227486c2.15155,0 3.227386,-1.075836 3.227509,-3.227486c-0.000122,-1.635262 -0.817749,-2.668068 -2.452911,-3.098412c-0.258301,-0.086067 -0.51651,-0.129112 -0.774597,-0.129112m-9.295197,61.709764c-0.000122,2.409866 -4.432526,4.088165 -13.297272,5.034912l-12.522705,0.774582l-2.323822,0c-10.500214,0 -18.504303,-0.903702 -24.012558,-2.71109c-2.668077,-0.774612 -4.002108,-1.807404 -4.002108,-3.098404c0,-2.495926 0.68854,-5.336136 2.065599,-8.520599c0.946732,-1.893463 1.42012,-3.227509 1.42012,-4.00209c0,-1.635254 -1.97954,-4.819748 -5.938615,-9.553394c-2.151657,-2.495934 -3.399612,-4.21727 -3.743896,-5.164009c0,-0.516396 -0.258194,-1.678291 -0.774596,-3.485687l-1.678299,-6.45499c-1.118852,-4.217274 -1.850433,-8.692711 -2.194703,-13.426394c-3.959061,-1.635254 -5.938583,-4.260284 -5.938583,-7.875076c0,-3.098412 1.420074,-5.293098 4.260284,-6.584091c0.946732,-0.430351 1.979538,-0.645523 3.098404,-0.645523c2.840195,0 4.948837,1.291017 6.325897,3.873016c0.602478,1.118843 0.903703,2.237724 0.903703,3.356598l-0.645494,4.905792c0,3.872986 2.754106,8.606653 8.262391,14.200983c0.430311,-3.528725 0.645493,-7.229593 0.645493,-11.10261c0,-5.766449 -1.032806,-9.424278 -3.098404,-10.973465c-0.172119,-0.17215 -0.344269,-0.301229 -0.516388,-0.387299c-1.54921,-0.946747 -2.323792,-2.625031 -2.323792,-5.034904c0,-3.184456 1.463104,-5.379166 4.389374,-6.584099c0.946747,-0.430328 1.936506,-0.6455 2.969284,-0.6455c3.01236,0 5.164,1.377083 6.455017,4.131187c0.516388,0.946754 0.774473,1.979529 0.774595,3.098412l-0.903717,5.551292c0,4.81974 2.366732,12.178406 7.100527,22.076086c1.807281,-8.090269 2.710999,-14.287046 2.71109,-18.590384c-0.000092,-3.614792 -0.64563,-6.92836 -1.936493,-9.940681c-0.51651,-1.118881 -0.774689,-1.979546 -0.774597,-2.582016c-0.000092,-3.184464 1.419983,-5.379158 4.260284,-6.584106c0.946625,-0.430321 1.936401,-0.6455 2.969299,-0.6455c3.012238,0 5.12085,1.420113 6.325897,4.260323c0.430206,0.946724 0.645386,1.936485 0.645508,2.969284c-0.000122,0.172133 -0.731689,2.452904 -2.194702,6.842299c-0.344391,1.118853 -0.51651,3.012337 -0.516418,5.680397c-0.000092,4.303337 0.903595,10.500114 2.711121,18.590387c4.647461,-9.811617 6.971283,-17.170298 6.971375,-22.07609l-0.774597,-5.42218l0,-0.129112c-0.000122,-3.184456 1.463043,-5.379166 4.389404,-6.584098c0.946625,-0.430328 1.936401,-0.6455 2.969299,-0.6455c3.012238,0 5.163879,1.377083 6.454987,4.131187c0.516296,0.946754 0.774506,1.97953 0.774597,3.098412c-0.000092,2.409874 -0.774719,4.131204 -2.323792,5.16398c-2.409973,1.549225 -3.614899,5.336143 -3.614807,11.360802c-0.000092,3.786942 0.215057,7.444771 0.645508,10.973495c5.508148,-5.59433 8.262268,-10.327997 8.26239,-14.200983l-0.645508,-4.905792c-0.000092,-3.012342 1.376984,-5.164009 4.131226,-6.455009c0.946625,-0.516396 1.979401,-0.774605 3.098389,-0.774605c3.098297,0 5.292999,1.37706 6.584076,4.131204l0.774597,2.452911l0,0.645498c-0.000092,3.442642 -1.979614,6.067665 -5.938568,7.875076c-0.51651,5.938601 -1.979645,13.211229 -4.389404,21.817877c-0.172241,0.688541 -0.258301,1.204933 -0.258209,1.549194c-0.000092,0.602463 -0.645599,1.592239 -1.936493,2.969307l-1.549194,1.936493c-4.131317,4.733673 -6.196899,8.0042 -6.196808,9.811604c-0.000092,0.516403 1.032684,3.184464 3.098419,8.004196c0.344147,1.721313 0.516266,3.227493 0.516388,4.518494m-28.014679,-73.84514c-1.635376,0 -2.668182,0.817642 -3.098419,2.452896c-0.086182,0.258202 -0.129181,0.516396 -0.129059,0.77459c-0.000122,1.635269 0.817505,2.668077 2.452881,3.098413c0.258087,0.086075 0.516296,0.129111 0.774597,0.129111c2.065491,0 3.098267,-1.075844 3.098389,-3.227524c-0.000122,-1.549187 -0.731659,-2.582001 -2.194702,-3.098389c-0.258301,-0.086061 -0.55954,-0.129097 -0.903687,-0.129097m23.237976,50.348969c-0.000092,-2.754147 -7.746094,-4.131229 -23.237976,-4.131229c-15.578062,0 -23.367079,1.420116 -23.367079,4.260326c0,1.204918 1.118851,1.807396 3.356583,1.807396c2.582031,0 5.809509,-0.215164 9.682497,-0.645508l8.39151,-0.258194l2.065613,0c2.409729,0 6.971252,0.215149 13.68457,0.645508l6.325893,0.258194c2.065491,0 3.098297,-0.645508 3.098389,-1.936493"/>
  </g>
 </g>
</svg>