<?xml version="1.0" encoding="UTF-8"?>
<svg width="60" height="80" xmlns="http://www.w3.org/2000/svg">
 <metadata>Chess Set SymbolsgamechesssymbolsboardrecreationfontsIgor KrizanovskijIgor KrizanovskijIgor Krizanovskijimage/svg+xmlen</metadata>
 <g>
  <title>Black Soilder</title>
  <g id="layer1">
   <path d="m2.129944,77.910446c-0.085999,-1.032791 -0.129089,-3.055359 -0.129089,-6.067688c0,-10.844391 3.356628,-18.891617 10.069824,-24.141678c1.979492,-1.635269 4.389282,-3.141426 7.229614,-4.518494c-3.356628,-1.032806 -5.63739,-3.571762 -6.842346,-7.61689c-0.344236,-1.291 -0.516356,-2.625031 -0.516356,-4.00211c0,-5.76646 2.969297,-9.85461 8.907835,-12.264496c-1.549252,-2.581985 -2.323853,-5.034886 -2.323792,-7.358686c-0.000061,-3.872993 1.893372,-6.756218 5.68042,-8.649687c1.721191,-0.860672 3.571655,-1.291008 5.551331,-1.291008c4.303223,0 7.487671,1.678307 9.553345,5.034904c0.946655,1.463135 1.420044,3.098403 1.420105,4.905792c-0.000061,2.495941 -0.731689,4.948831 -2.194702,7.358687c3.184387,1.291 5.465149,3.012339 6.842285,5.163986c1.376953,2.323814 2.065491,4.690636 2.065613,7.10051c-0.000122,4.475458 -1.549316,7.875093 -4.647583,10.198885c-0.774719,0.688538 -1.635376,1.161911 -2.582031,1.420113c7.91803,4.045128 13.039001,9.338226 15.362915,15.879288c1.204834,3.614792 1.807312,7.875076 1.807373,12.780884c-0.000061,3.012329 -0.043152,5.034897 -0.129089,6.067688l-55.12567,0" id="path1722" stroke-width="1.0000000pt" fill="#000000"/>
  </g>
 </g>
</svg>