<?xml version="1.0" encoding="UTF-8"?>
<svg width="65" height="80" xmlns="http://www.w3.org/2000/svg">
 <metadata>Chess Set SymbolsgamechesssymbolsboardrecreationfontsIgor KrizanovskijIgor KrizanovskijIgor Krizanovskijimage/svg+xmlen</metadata>
 <g>
  <title>White Bishop</title>
  <g id="layer1">
   <path fill="#000000" stroke-width="1.0000000pt" id="path1705" d="m17.686951,27.691681l0,22.850677l29.434784,0l0,-22.850677l-29.434784,0m-15.233795,50.090759l-2.452883,-2.452911l0,-8.907867l13.16821,-13.297302l0,-25.819977l-11.360809,-9.940685l0,-11.748092l3.743896,-3.614792l11.618993,0l2.194702,2.194687l0,3.356613l3.743895,0l0,-3.356613l2.194702,-2.194687l14.200991,0l2.194702,2.194687l0,3.356613l3.614803,0l0,-3.356613l2.323792,-2.194687l11.618988,0l3.743896,3.614792l0,11.748092l-11.360775,9.940685l0,25.819977l13.168182,13.297302l0,8.907867l-2.452911,2.452911l-59.902375,0m2.065643,-10.198883l0,5.034882l55.771115,0l0,-5.034882l-55.771115,0m12.651765,-12.780914l-8.5206,8.262421l47.508794,0l-8.520603,-8.262421l-30.467588,0m10.328003,-47.379654l0,3.356598l-1.936493,1.807419l-8.39151,0l-1.936497,-1.807419l0,-3.614792l-7.22961,0l-1.678288,1.807404l0,7.229599l8.778805,7.100479l34.598761,0l8.778809,-7.100479l0,-7.229599l-1.67831,-1.807404l-7.229588,0l0,3.614792l-1.936493,1.807419l-8.39151,0l-1.936497,-1.807419l0,-3.356598l-9.811583,0"/>
  </g>
 </g>
</svg>