<?xml version="1.0" encoding="UTF-8"?>
<svg width="80" height="80" xmlns="http://www.w3.org/2000/svg">
 <metadata>Chess Set SymbolsgamechesssymbolsboardrecreationfontsIgor KrizanovskijIgor KrizanovskijIgor Krizanovskijimage/svg+xmlen</metadata>
 <g>
  <title>White Horse</title>
  <g id="layer1">
   <path d="m10.29449,46.830509c1.20496,0 1.80743,0.817631 1.80743,2.452881c0,2.151669 -1.07581,3.227509 -3.22754,3.227509c-0.8606,0 -1.29095,-0.688538 -1.29095,-2.065609c0,-2.409851 0.90369,-3.61478 2.71106,-3.61478m9.29523,-15.75021c-1.20496,0 -1.80743,-0.731539 -1.80743,-2.194689c0,-2.323792 1.377081,-4.217251 4.131231,-5.680401c1.20496,-0.602449 2.32379,-0.90369 3.356628,-0.90369c1.807371,0 2.797121,0.602461 2.969301,1.807421c0,1.979521 -1.549261,3.872999 -4.64764,5.680361c-1.549191,0.860699 -2.883181,1.290998 -4.002081,1.290998m1.032782,-24.27077c0.344299,1.20493 0.516418,2.022581 0.516418,2.4529c0,0.25821 -0.129089,0.94673 -0.387329,2.06561c1.377079,0 3.270569,-0.68855 5.68042,-2.06561c-2.32379,-1.20493 -4.260311,-2.02257 -5.809509,-2.4529m-15.362851,44.410391c0.51642,2.065578 1.89343,3.571751 4.13116,4.518459c0.860661,0.344299 1.678341,0.516418 2.452881,0.516418l0.25824,0c0.17212,0 1.11884,-0.516418 2.84021,-1.549191c0.51636,-0.344269 0.94672,-0.516388 1.291019,-0.516388l0.516361,0c0.430359,0 0.64551,0.258179 0.64551,0.77457l-0.774601,2.452908c0,0.774601 0.60248,1.161903 1.807371,1.161903c0.17218,0 1.24799,-1.50613 3.227539,-4.518463c3.78693,-5.852509 9.16608,-10.284969 16.137451,-13.297298c0.688538,-4.647579 2.409908,-8.735729 5.163998,-12.2645c0.688541,-0.94673 1.377083,-1.42009 2.065613,-1.42009c0.774597,0 1.16193,0.559429 1.16193,1.67828c0,0.258219 -0.774601,2.71109 -2.323792,7.358688c-0.602478,1.979523 -0.903751,3.442692 -0.903751,4.3894c0,0.258179 0.08606,0.817631 0.25824,1.67831c0,6.110691 -2.582027,12.522671 -7.746029,19.23587c-3.442688,4.647583 -5.336119,8.34845 -5.680359,11.10257l42.602913,0c0.344299,-3.959053 0.516418,-6.885307 0.516418,-8.778778c0,-17.72974 -5.55127,-31.887682 -16.653873,-42.473862c-3.356628,-3.098421 -6.067688,-4.6476 -8.133297,-4.6476l-7.745972,0c-0.688541,-0.34428 -1.377079,-2.06561 -2.065548,-5.164c-0.516483,-2.49594 -1.16193,-4.04514 -1.936523,-4.647601c-1.032837,3.09839 -4.21722,5.50827 -9.553339,7.2296c-2.84021,0.86066 -4.819759,1.72133 -5.938599,2.582c-0.946781,3.012329 -3.7439,9.12306 -8.391541,18.332178c-4.56152,9.123051 -6.97137,14.545261 -7.22955,16.266602m72.295962,26.078163l-54.092903,0c0.34424,-5.938614 2.58197,-11.619003 6.713202,-17.041172c3.18445,-4.303341 5.07794,-6.928379 5.680418,-7.875122c1.204903,-1.893429 1.936462,-4.174191 2.194702,-6.842289c-5.59436,2.409851 -9.940731,5.852539 -13.039122,10.327999l-1.807369,2.969299c-1.291019,2.065552 -2.108641,3.227512 -2.45294,3.485691c-0.516359,0.430332 -1.075809,0.645512 -1.67828,0.645512c-2.66803,0 -4.47546,-0.90369 -5.42218,-2.71109c-0.17212,-0.258209 -0.25818,-0.559452 -0.25818,-0.903721c-0.860721,0.430328 -1.72137,0.645512 -2.58203,0.645512c-4.13116,0 -7.40173,-2.582001 -9.81158,-7.746002c0.68854,-3.78693 4.30334,-12.522671 10.84436,-26.207279c0.68854,-1.290991 1.204961,-2.32379 1.54926,-3.098391c2.58197,-5.766479 3.872991,-10.11282 3.872991,-13.039109c0,-0.43031 -0.258181,-2.84018 -0.774601,-7.22958l1.03278,0c4.647581,0 9.080021,1.46313 13.2973,4.3894c2.323792,-4.04515 4.26025,-6.0677 5.809509,-6.0677c2.754093,1.46312 4.647583,3.52873 5.680363,6.19681l1.420097,4.26028c0.860661,-0.17213 1.59222,-0.25819 2.194702,-0.25819c6.88538,0 13.684628,4.38939 20.397827,13.16818c7.832031,10.24193 11.748055,24.270769 11.748055,42.086535c0,4.045166 -0.172119,7.659927 -0.516373,10.844376" id="path1693" stroke-width="1.0000000pt" fill="#000000"/>
  </g>
 </g>
</svg>