<?xml version="1.0" encoding="UTF-8"?>
<svg width="60" height="80" xmlns="http://www.w3.org/2000/svg">
 <metadata>Chess Set SymbolsgamechesssymbolsboardrecreationfontsIgor KrizanovskijIgor KrizanovskijIgor Krizanovskijimage/svg+xmlen</metadata>
 <g>
  <path fill="#000000" stroke-width="1.0000000pt" id="path1688" d="m52.235352,72.247337c-0.000122,-9.036987 -2.453003,-15.793209 -7.3587,-20.268677c-1.635384,-1.549191 -3.657902,-3.012329 -6.067692,-4.3894c-3.356689,-1.979519 -5.034969,-3.78693 -5.034851,-5.42218c-0.000118,-0.860691 0.860531,-1.8074 2.58197,-2.84021c2.667973,-1.463131 4.260189,-3.184479 4.776672,-5.164001c0.172058,-0.77457 0.258118,-1.721298 0.25824,-2.840179c-0.000122,-3.959059 -2.022713,-7.057449 -6.067753,-9.295198l-2.323788,-1.678301c-0.43042,-0.430309 -0.645569,-0.9037 -0.645451,-1.420099c-0.000118,-1.463121 0.516239,-2.926271 1.549191,-4.389391c0.688419,-0.94673 1.03265,-2.065599 1.03278,-3.3566c-0.000122,-2.23772 -1.205021,-3.87299 -3.614811,-4.90579c-0.774719,-0.25821 -1.54932,-0.3873 -2.32379,-0.3873c-2.409969,0 -4.13129,1.07585 -5.164,3.22748c-0.34436,0.68855 -0.516479,1.37709 -0.51642,2.06561c-0.000059,0.7746 0.559391,2.23772 1.678341,4.3894c0.688419,1.204929 0.989618,2.32379 0.903688,3.356579c-0.000118,1.032791 -0.98987,2.065601 -2.969299,3.0984c-3.959169,2.32378 -5.938721,5.422201 -5.938599,9.2952c-0.000122,3.3566 1.67816,6.02466 5.034908,8.004179c1.63513,1.11887 2.452761,2.065613 2.452881,2.84021c-0.00012,1.63525 -1.67841,3.442661 -5.03491,5.42218c-6.19678,3.78693 -10.155821,8.39151 -11.8772,13.81369c-0.94672,3.012329 -1.42004,6.627144 -1.42004,10.844391l46.08862,0m-50.60718,5.164001c-0.08606,-1.032814 -0.12909,-3.012329 -0.12909,-5.938599c0,-10.586182 3.09839,-18.504303 9.29523,-23.754364c2.06555,-1.72134 4.69049,-3.399628 7.875059,-5.034878c-3.270509,-1.03281 -5.465209,-3.528782 -6.584109,-7.48782c-0.4303,-1.291 -0.64551,-2.625031 -0.64551,-4.002111c0,-5.766449 2.92627,-9.897659 8.77881,-12.39357c-1.37714,-2.495939 -2.06567,-4.94882 -2.06555,-7.3587c-0.00012,-3.95906 1.93634,-6.88531 5.80945,-8.77878c1.635189,-0.77461 3.39954,-1.16191 5.293091,-1.16191c4.389338,0 7.616819,1.6783 9.682501,5.0349c0.946659,1.46313 1.42004,3.0984 1.420097,4.90579c-0.000057,2.32381 -0.774719,4.776701 -2.323788,7.3587c5.93848,2.40987 8.90778,6.541059 8.907898,12.39357c-0.000118,4.561552 -1.67841,8.00421 -5.034908,10.328001c-0.688602,0.516418 -1.463261,0.903721 -2.323792,1.16193c7.745911,3.959049 12.780762,8.993958 15.10474,15.104641c1.463009,3.786957 2.19458,8.34848 2.194641,13.684601c-0.000061,2.84021 -0.043091,4.819725 -0.129089,5.938599l-55.125671,0"/>
  <title>white soldier</title>
 </g>
</svg>